<?xml version="1.0" encoding="UTF-8" standalone="no"?>
<!DOCTYPE svg PUBLIC "-//W3C//DTD SVG 1.1//EN" "http://www.w3.org/Graphics/SVG/1.1/DTD/svg11.dtd">
<!-- Created with Vectornator (http://vectornator.io/) -->
<svg height="100%" stroke-miterlimit="10" style="fill-rule:nonzero;clip-rule:evenodd;stroke-linecap:round;stroke-linejoin:round;" version="1.1" viewBox="0 0 146 165" width="100%" xml:space="preserve" xmlns="http://www.w3.org/2000/svg" xmlns:vectornator="http://vectornator.io" xmlns:xlink="http://www.w3.org/1999/xlink">
<defs/>
<g id="Untitled" vectornator:layerName="Untitled">
<g opacity="1" vectornator:layerName="g">
<path d="M66.0857 91.8655L88.7556 51.8148L88.6504 35.874L77.0536 47.7913L59.3939 88.4869L66.0857 91.8655Z" fill="#8f1442" fill-rule="nonzero" opacity="1" stroke="none" vectornator:layerName="path"/>
<path d="M88.9259 35.9975L88.4716 35.6269L75.7647 46.1261L75.6941 46.1845L75.659 46.2697L58.3218 88.4113L58.203 88.6998L58.4611 88.8154L62.2728 90.5228L62.5485 90.6458L62.6934 90.3456L88.9259 35.9975Z" fill="#8f1442" fill-rule="nonzero" opacity="1" stroke="#000000" stroke-linecap="butt" stroke-linejoin="miter" stroke-width="1" vectornator:layerName="path"/>
<path d="M65.9293 92.1606L66.1904 92.2925L66.3499 92.0105L89.0199 51.9597L89.0675 51.8755L89.0669 51.782L88.9616 35.8412L88.9569 35.1251L88.4428 35.6536L76.8459 47.5708L76.7988 47.6192L76.7719 47.6813L59.1123 88.3768L58.9906 88.657L59.2374 88.7819L65.9293 92.1606Z" fill="#8f1442" fill-rule="nonzero" opacity="1" stroke="#000000" stroke-linecap="butt" stroke-linejoin="miter" stroke-width="1" vectornator:layerName="path"/>
<path d="M88.6504 35.874L62.418 90.222L58.6063 88.5146L62.7337 78.4821L64.6929 73.72L75.9435 46.3732L88.6504 35.874Z" fill="#f5891d" fill-rule="nonzero" opacity="1" stroke="none" vectornator:layerName="path"/>
<path d="M70.35 99.2126C72.1703 98.4409 73.1829 96.3288 72.612 94.4949C72.0412 92.6609 70.1028 91.7997 68.2825 92.5714C66.4623 93.3431 65.4496 95.4552 66.0202 97.2895C66.5913 99.1233 68.5298 99.9843 70.35 99.2126Z" fill="#8f1442" fill-rule="nonzero" opacity="1" stroke="none" vectornator:layerName="path"/>
<path d="M54.4628 92.0943C56.283 91.3227 57.2961 89.2099 56.725 87.3762C56.154 85.5424 54.2159 84.6809 52.3956 85.4526C50.5754 86.2243 49.5623 88.337 50.1334 90.1707C50.7044 92.0045 52.6425 92.866 54.4628 92.0943Z" fill="#8f1442" fill-rule="nonzero" opacity="1" stroke="none" vectornator:layerName="path"/>
<path d="M55.5639 110.883C57.7353 109.962 58.9435 107.443 58.2625 105.255C57.5815 103.067 55.2694 102.04 53.0979 102.96C50.9265 103.881 49.7183 106.401 50.3993 108.588C51.0804 110.776 53.3929 111.803 55.5639 110.883Z" fill="#8f1442" fill-rule="nonzero" opacity="1" stroke="none" vectornator:layerName="path"/>
<path d="M53.1983 89.2481L55.036 85.4404L70.9233 92.5583L69.0858 96.3657L53.1983 89.2481Z" fill="#8f1442" fill-rule="nonzero" opacity="1" stroke="none" vectornator:layerName="path"/>
<path d="M56.9051 107.258L65.0412 90.8255L60.6558 88.5899L52.0717 105.092L56.9051 107.258Z" fill="#8f1442" fill-rule="nonzero" opacity="1" stroke="none" vectornator:layerName="path"/>
<path d="M54.0926 109.364C53.7961 109.362 53.5091 109.299 53.2409 109.179C52.099 108.668 51.6587 107.238 52.259 105.993C52.7061 105.066 53.6124 104.472 54.5686 104.479C54.8652 104.481 55.1526 104.543 55.4207 104.664C56.5626 105.174 57.0025 106.605 56.4018 107.849C55.9544 108.777 55.0479 109.37 54.0926 109.364Z" fill="#8f1442" fill-rule="nonzero" opacity="1" stroke="none" vectornator:layerName="path"/>
<path d="M69.1449 97.6391C68.9331 97.6379 68.7272 97.5936 68.5353 97.5074C68.1396 97.3297 67.8484 96.9952 67.7164 96.5641C67.5841 96.1335 67.6257 95.6588 67.8335 95.2282C68.1534 94.5652 68.8022 94.1401 69.4857 94.1445C69.6975 94.1457 69.9034 94.19 70.0954 94.2761C70.4909 94.454 70.7823 94.7883 70.9146 95.2189C71.0466 95.6501 71.0053 96.1242 70.7971 96.5554C70.4772 97.2184 69.8285 97.6434 69.1449 97.6391Z" fill="#8f1442" fill-rule="nonzero" opacity="1" stroke="none" vectornator:layerName="path"/>
<path d="M53.2581 90.5202C53.0463 90.5191 52.8411 90.4745 52.6484 90.3886C51.8319 90.0225 51.5165 88.9994 51.9465 88.1085C52.2663 87.4455 52.9145 87.0216 53.5981 87.026C53.8098 87.0271 54.0158 87.0714 54.2077 87.1577C55.0252 87.5244 55.3404 88.5465 54.9105 89.4375C54.5906 90.1005 53.9418 90.5255 53.2581 90.5202Z" fill="#8f1442" fill-rule="nonzero" opacity="1" stroke="none" vectornator:layerName="path"/>
</g>
<path d="M56.2094 39.2025L55.8844 42.4511C51.8734 44.8987 46.9594 46.6662 41.1424 47.7536C45.1114 49.5393 48.9944 50.5802 52.7924 50.8762L54.2874 50.9928C56.4964 56.3646 57.6794 62.9404 57.8374 70.7204L39.3934 69.2824C39.2664 64.7793 38.5914 60.875 37.3684 57.57C36.1974 54.2048 34.6124 51.8666 32.6134 50.5553C32.4814 51.6363 32.2884 53.8039 32.0344 57.058C31.7814 60.3121 31.6224 64.1835 31.5594 68.6724L16.0354 67.4624C15.3795 58.103 15.36 49.4674 15.9764 41.5553C16.5984 33.5795 17.5054 26.2358 18.6964 19.5241L55.8694 22.4213C56.4594 28.9509 56.5724 34.5446 56.2094 39.2025ZM35.9294 27.3187C34.9214 32.8892 34.0644 38.3752 33.3564 43.7765C36.0074 43.4696 38.2404 42.3919 40.0564 40.5434C39.4874 36.1981 38.1124 31.7898 35.9294 27.3187Z" fill="#f5891d" fill-rule="nonzero" opacity="1" stroke="none" vectornator:layerName="path"/>
<path d="M55.4084 36.1295L55.0834 39.3781C51.0714 41.8257 46.1574 43.5932 40.3414 44.6806C44.3094 46.4663 48.1924 47.5072 51.9904 47.8032L53.4864 47.9198C55.6944 53.2916 56.8774 59.8674 57.0354 67.6474L38.5914 66.2097C38.4654 61.7063 37.7904 57.802 36.5674 54.497C35.3964 51.1318 33.8114 48.7936 31.8124 47.4823C31.6804 48.5633 31.4874 50.7309 31.2334 53.985C30.9794 57.2391 30.8214 61.1105 30.7584 65.5992L15.2338 64.3892C14.5781 55.03 14.5586 46.3944 15.1753 38.4823C15.7969 30.5065 16.7034 23.1628 17.8954 16.4511L55.0684 19.3483C55.6584 25.8779 55.7714 31.4716 55.4084 36.1295ZM35.1274 24.2457C34.1204 29.8162 33.2624 35.3022 32.5554 40.7035C35.2064 40.3966 37.4394 39.3189 39.2554 37.4704C38.6864 33.1251 37.3104 28.7168 35.1274 24.2457Z" fill="#8f1442" fill-rule="nonzero" opacity="1" stroke="#000000" stroke-linecap="butt" stroke-linejoin="miter" stroke-width="1" vectornator:layerName="path"/>
<path d="M129.341 92.8348C129.487 87.845 129.206 82.9067 128.498 78.0199L142.736 78.4364C142.743 79.3971 142.72 80.805 142.666 82.6602C142.426 90.8487 141.626 97.6121 140.264 102.951C137.063 104.522 134.378 106.652 132.208 109.342C130.038 112.031 128.909 114.848 128.823 117.79C128.739 120.669 129.385 123.441 130.76 126.107L117.372 125.715C115.348 119.765 113.688 112.898 112.392 105.112C111.083 109.876 110.379 113.921 110.282 117.248C110.187 120.51 110.62 123.277 111.581 125.546L98.2465 125.155C95.7101 118.55 93.6112 110.934 91.9494 102.305C90.2876 93.6771 89.2419 85.1949 88.8123 76.8587L102.944 77.2722C103.144 91.0439 104.368 102.509 106.617 111.666C108.586 106.154 109.687 99.4309 109.919 91.4982C110.044 87.2121 109.88 82.5333 109.426 77.4618L122.07 77.8317C122.266 90.515 123.596 101.983 126.061 112.235C128.044 106.275 129.137 99.8078 129.341 92.8348Z" fill="#f5891d" fill-rule="nonzero" opacity="1" stroke="none" vectornator:layerName="path"/>
<path d="M126.43 89.7484C126.576 84.7585 126.295 79.8202 125.587 74.9334L139.825 75.3499C139.832 76.3106 139.809 77.7185 139.755 79.5737C139.515 87.7622 138.715 94.5257 137.353 99.8642C134.152 101.435 131.467 103.566 129.297 106.255C127.127 108.945 125.998 111.761 125.912 114.704C125.828 117.583 126.474 120.355 127.849 123.02L114.461 122.628C112.437 116.679 110.777 109.811 109.481 102.026C108.172 106.79 107.468 110.835 107.371 114.161C107.276 117.424 107.709 120.19 108.67 122.459L95.3355 122.069C92.7992 115.464 90.7002 107.847 89.0384 99.2189C87.3766 90.5906 86.3309 82.1084 85.9013 73.7723L100.033 74.1858C100.233 87.9575 101.457 99.4222 103.706 108.58C105.675 103.067 106.776 96.3444 107.008 88.4118C107.133 84.1257 106.969 79.4469 106.515 74.3754L119.159 74.7453C119.355 87.4285 120.685 98.8963 123.15 109.149C125.133 103.188 126.226 96.7214 126.43 89.7484Z" fill="#8f1442" fill-rule="nonzero" opacity="1" stroke="#000000" stroke-linecap="butt" stroke-linejoin="miter" stroke-width="1" vectornator:layerName="path"/>
</g>
</svg>
