<?xml version="1.0" encoding="UTF-8" standalone="no"?>
<!DOCTYPE svg PUBLIC "-//W3C//DTD SVG 1.1//EN" "http://www.w3.org/Graphics/SVG/1.1/DTD/svg11.dtd">
<!-- Created with Vectornator (http://vectornator.io/) -->
<svg height="100%" stroke-miterlimit="10" style="fill-rule:nonzero;clip-rule:evenodd;stroke-linecap:round;stroke-linejoin:round;" version="1.1" viewBox="0 0 146 165" width="100%" xml:space="preserve" xmlns="http://www.w3.org/2000/svg" xmlns:vectornator="http://vectornator.io" xmlns:xlink="http://www.w3.org/1999/xlink">
<defs/>
<g id="Untitled" vectornator:layerName="Untitled">
<g opacity="1" vectornator:layerName="button">
<g opacity="1" vectornator:layerName="g">
<path d="M3.78386 81.8542C3.78386 73.6334 8.89283 66.969 15.195 66.969L130.733 66.969C137.035 66.969 142.144 73.6334 142.144 81.8542L143.239 93.3282L142.144 105.422C142.144 113.643 137.035 120.308 130.733 120.308L15.195 120.308C8.89283 120.308 3.78386 113.643 3.78386 105.422L2.76057 93.3282L3.78386 81.8542Z" fill="#8f1442" fill-rule="nonzero" opacity="1" stroke="none" vectornator:layerName="path"/>
<path d="M5.32827 81.992L5.3344 81.9232L5.3344 81.8542C5.3344 78.0549 6.51672 74.6723 8.35665 72.2721C10.1954 69.8736 12.6268 68.5196 15.195 68.5196L130.733 68.5196C133.3 68.5196 135.732 69.8736 137.571 72.2721C139.411 74.6723 140.593 78.0549 140.593 81.8542L140.593 81.9281L140.6 82.0016L141.682 93.332L140.6 105.282L140.593 105.352L140.593 105.422C140.593 109.222 139.411 112.604 137.571 115.004C135.732 117.403 133.3 118.757 130.733 118.757L15.195 118.757C12.6268 118.757 10.1954 117.403 8.35665 115.004C6.51672 112.604 5.3344 109.222 5.3344 105.422L5.3344 105.357L5.32888 105.292L4.31694 93.3317L5.32827 81.992Z" fill="none" opacity="1" stroke="#f5891d" stroke-linecap="butt" stroke-linejoin="miter" stroke-width="3.10108" vectornator:layerName="path"/>
</g>
<path d="M32.5509 95.2145C32.6687 95.0496 32.6805 94.8493 32.5862 94.6138C32.5391 94.4489 32.5273 94.3546 32.5509 94.3311C32.5745 94.3076 32.5745 94.2722 32.5509 94.2251C32.5273 94.0367 32.5273 93.9071 32.5509 93.8365C32.5745 93.7422 32.5745 93.648 32.5509 93.5538C32.5509 93.3653 32.5509 93.2711 32.5509 93.2711C32.5745 93.2476 32.5862 93.2122 32.5862 93.1651C32.5862 93.0237 32.5745 92.9413 32.5509 92.9177C32.5509 92.8707 32.5509 92.8235 32.5509 92.7764C32.5745 92.588 32.5745 92.482 32.5509 92.4584C32.5509 92.4348 32.5509 92.4113 32.5509 92.3878L32.5509 91.787C32.5509 91.528 32.5509 91.3277 32.5509 91.1863C32.5745 90.8801 32.5745 90.6799 32.5509 90.5857C32.5273 90.4679 32.5273 90.3619 32.5509 90.2677C32.5273 90.0085 32.5155 89.8083 32.5155 89.667C32.5155 89.5021 32.5155 89.3725 32.5155 89.2783C32.5391 88.8778 32.5391 88.5834 32.5155 88.3949C32.5155 88.2065 32.5273 88.0534 32.5509 87.9356C32.598 87.7236 32.598 87.4881 32.5509 87.2289C32.5509 87.1111 32.5509 86.9934 32.5509 86.8756C32.5745 86.7578 32.5745 86.64 32.5509 86.5222C32.5273 86.2631 32.5273 86.11 32.5509 86.0629C32.5273 85.9215 32.5038 85.8273 32.4803 85.7802C32.4567 85.7331 32.4449 85.686 32.4449 85.6389C32.4449 85.5211 32.4449 85.4268 32.4449 85.3562C32.4685 85.262 32.4685 85.1795 32.4449 85.1088C32.4449 84.9439 32.4331 84.8379 32.4095 84.7909C32.386 84.7437 32.3743 84.6966 32.3743 84.6495C32.3271 84.3904 32.3036 84.2137 32.3036 84.1195C32.28 83.7426 32.2682 83.4364 32.2682 83.2008C32.2918 82.9652 32.28 82.7532 32.2329 82.5648C32.2329 82.4941 32.2211 82.4234 32.1976 82.3527C32.174 82.2821 32.1622 82.2114 32.1622 82.1407C32.1622 82.0465 32.1622 81.9523 32.1622 81.858C32.1858 81.7403 32.2093 81.6225 32.2329 81.5047C32.28 81.3869 32.3036 81.2809 32.3036 81.1867C32.3271 81.0689 32.3625 80.9865 32.4095 80.9394C32.6216 80.8216 32.7158 80.751 32.6922 80.7274C32.6922 80.6803 32.7158 80.6449 32.7629 80.6214C32.8336 80.5978 32.8924 80.5625 32.9396 80.5153C32.9867 80.4683 33.0456 80.4211 33.1163 80.3741C33.3518 80.3505 33.4696 80.3387 33.4696 80.3387C33.4931 80.3151 33.5285 80.3034 33.5756 80.3034C33.717 80.3269 33.8347 80.3387 33.929 80.3387C34.0467 80.3151 34.1527 80.3269 34.2469 80.3741C34.2941 80.3269 34.3529 80.3151 34.4236 80.3387C34.4943 80.3387 34.5768 80.3387 34.671 80.3387L35.1303 80.3387C35.2245 80.4329 35.3188 80.4801 35.413 80.4801C35.5072 80.4801 35.6132 80.4801 35.731 80.4801C35.9901 80.5036 36.2021 80.4918 36.367 80.4447C36.5319 80.3976 36.6968 80.3741 36.8617 80.3741C36.9795 80.3741 37.0855 80.3858 37.1797 80.4093C37.274 80.4329 37.3564 80.4211 37.427 80.3741C37.5213 80.4211 37.6273 80.4447 37.7451 80.4447C37.8864 80.4447 38.016 80.4565 38.1338 80.4801C38.3693 80.5271 38.5931 80.5271 38.8051 80.4801L39.1938 80.4801C39.3116 80.4801 39.4176 80.4918 39.5118 80.5153C39.6295 80.5153 39.7473 80.5153 39.8651 80.5153C40.1478 80.4918 40.2891 80.4801 40.2891 80.4801C40.3834 80.4801 40.4776 80.4801 40.5718 80.4801C40.6896 80.4801 40.8192 80.4918 40.9605 80.5153C41.2432 80.5389 41.3845 80.5625 41.3845 80.586C41.4081 80.586 41.4316 80.586 41.4551 80.586C41.5259 80.586 41.6083 80.586 41.7025 80.586C41.7968 80.5625 41.8674 80.5743 41.9145 80.6214C42.1972 80.5978 42.3503 80.5978 42.3739 80.6214C42.421 80.6214 42.4681 80.6214 42.5152 80.6214L43.1159 80.7274C43.3279 80.7274 43.4457 80.7392 43.4692 80.7627C43.4928 80.7863 43.5282 80.7863 43.5752 80.7627C43.7637 80.8805 43.8815 80.9394 43.9286 80.9394C43.9757 80.9158 44.0228 80.9158 44.0699 80.9394C44.1641 80.9865 44.2348 81.0454 44.2819 81.1161C44.3526 81.1632 44.4232 81.1749 44.494 81.1514C44.6588 81.3163 44.7413 81.3869 44.7413 81.3634C44.7413 81.3399 44.7648 81.3516 44.8119 81.3987C44.8826 81.4929 44.9415 81.5518 44.9886 81.5754C45.0357 81.599 45.0828 81.6225 45.1299 81.6461C45.2713 81.811 45.3538 81.9052 45.3773 81.9288C45.4008 81.9288 45.4126 81.9523 45.4126 81.9994C45.6482 82.1879 45.766 82.2821 45.766 82.2821C45.9073 82.3763 46.0015 82.4588 46.0486 82.5294C46.0958 82.6001 46.1782 82.6354 46.296 82.6354C46.4138 82.8474 46.5198 82.9535 46.614 82.9535C46.614 83.0241 46.6375 83.083 46.6847 83.1301C46.7553 83.1537 46.7907 83.2243 46.7907 83.3421C46.932 83.4364 47.038 83.5188 47.1087 83.5894C47.2029 83.7072 47.2971 83.8133 47.3914 83.9075L47.6387 84.2255C47.78 84.3904 47.8625 84.4964 47.886 84.5435C47.9567 84.6377 48.0156 84.7437 48.0627 84.8615C48.1334 84.9557 48.1687 85.0499 48.1687 85.1442C48.2865 85.262 48.3572 85.3798 48.3807 85.4975C48.5221 85.7331 48.6045 85.8627 48.6281 85.8862C48.6516 85.8862 48.6751 85.9097 48.6987 85.9569C48.7694 86.1218 48.8165 86.216 48.8401 86.2396C48.8636 86.2631 48.899 86.2984 48.946 86.3456C49.1345 86.534 49.2287 86.64 49.2287 86.6635C49.2523 86.6871 49.2876 86.6871 49.3347 86.6635C49.3583 86.7578 49.3819 86.852 49.4054 86.9462C49.4525 87.0169 49.4997 87.0994 49.5467 87.1936C49.6645 87.4291 49.7352 87.594 49.7588 87.6883C49.8059 87.7589 49.8766 87.8178 49.9708 87.8649C50.0179 88.0769 50.1003 88.2536 50.2181 88.3949C50.3595 88.5127 50.4537 88.7012 50.5008 88.9603C50.5479 89.031 50.5832 89.1134 50.6068 89.2076C50.6539 89.2783 50.701 89.3607 50.7481 89.4549C50.8659 89.6434 50.913 89.7494 50.8894 89.773C50.8894 89.7966 50.9012 89.8201 50.9248 89.8436L51.1368 90.2677C51.2546 90.4325 51.3135 90.5504 51.3135 90.621C51.3135 90.6917 51.337 90.7741 51.3841 90.8684C51.4548 91.0333 51.5019 91.151 51.5255 91.2217C51.549 91.2923 51.5726 91.3748 51.5962 91.469C51.6432 91.5632 51.6668 91.6575 51.6668 91.7517C51.6904 91.8224 51.7139 91.8931 51.7375 91.9637C51.8317 92.2464 51.9024 92.4113 51.9495 92.4584C51.9731 92.529 51.9613 92.5997 51.9142 92.6704C51.867 92.7175 51.867 92.7764 51.9142 92.8471C51.9613 92.9884 51.9848 93.0826 51.9848 93.1297C52.0084 93.1533 52.0201 93.1886 52.0201 93.2358C52.0437 93.3064 52.0673 93.3888 52.0909 93.4831C52.1379 93.5773 52.1615 93.6598 52.1615 93.7305C52.1144 94.0131 52.1026 94.2016 52.1261 94.2958C52.1497 94.39 52.1144 94.4607 52.0201 94.5078C52.0673 94.6727 52.0909 94.814 52.0909 94.9318C52.1144 95.026 52.1026 95.1556 52.0555 95.3205C51.9848 95.5325 51.9259 95.6503 51.8788 95.6738C51.8553 95.6738 51.8317 95.6974 51.8082 95.7445C51.7375 95.933 51.6904 96.0508 51.6668 96.0978C51.6668 96.1214 51.655 96.145 51.6315 96.1685C51.5608 96.2627 51.5019 96.4041 51.4548 96.5925C51.4077 96.6396 51.3606 96.6985 51.3135 96.7692C51.2663 96.8399 51.2546 96.9341 51.2781 97.0518C51.1603 97.3581 51.0426 97.6054 50.9248 97.7939C50.7599 98.053 50.6657 98.2415 50.6421 98.3593C50.6421 98.4535 50.6186 98.5359 50.5714 98.6066L50.3595 98.9599C50.1945 99.1955 50.0885 99.3722 50.0414 99.49C50.0179 99.5842 49.9826 99.6902 49.9354 99.808C49.8412 100.02 49.7823 100.161 49.7588 100.232C49.7352 100.303 49.6999 100.385 49.6528 100.479C49.6056 100.597 49.5585 100.703 49.5114 100.797C49.4643 100.892 49.4172 100.998 49.3701 101.115C49.2523 101.162 49.1698 101.28 49.1227 101.469C48.9814 101.539 48.8754 101.681 48.8047 101.893C48.7105 101.94 48.6398 102.01 48.5927 102.105C48.5691 102.175 48.5221 102.258 48.4514 102.352C48.2865 102.541 48.1922 102.646 48.1687 102.67C48.1687 102.67 48.1569 102.67 48.1334 102.67C48.0862 102.717 48.0392 102.788 47.992 102.882C47.9685 102.953 47.9214 103.012 47.8507 103.059C47.7093 103.247 47.6387 103.365 47.6387 103.412C47.3796 103.648 47.2264 103.801 47.1794 103.871C47.0851 103.966 47.0027 104.048 46.932 104.119C46.8613 104.166 46.8025 104.248 46.7553 104.366C46.5669 104.507 46.4491 104.637 46.402 104.755C46.2371 104.896 46.1193 104.99 46.0486 105.037C45.978 105.061 45.9191 105.12 45.8719 105.214C45.7777 105.214 45.7071 105.238 45.66 105.285C45.6128 105.332 45.5657 105.379 45.5186 105.426C45.3066 105.567 45.1653 105.626 45.0946 105.603L44.8826 105.956C44.7648 106.05 44.6706 106.098 44.5999 106.098C44.5528 106.098 44.5057 106.121 44.4586 106.168C44.3644 106.262 44.2701 106.357 44.1759 106.451L43.8579 106.698C43.6459 106.769 43.4574 106.804 43.2925 106.804C43.0805 106.851 42.951 106.863 42.9039 106.84C42.8568 106.816 42.8096 106.804 42.7626 106.804C42.5034 106.828 42.3385 106.828 42.2679 106.804C42.2207 106.781 42.1619 106.757 42.0912 106.733C42.0205 106.733 41.891 106.757 41.7025 106.804C41.5612 106.757 41.4199 106.745 41.2785 106.769C41.1372 106.792 40.984 106.781 40.8192 106.733C40.5836 106.71 40.3716 106.698 40.1831 106.698C40.0182 106.722 39.8887 106.71 39.7945 106.663C39.7002 106.686 39.606 106.698 39.5118 106.698C39.4411 106.722 39.3469 106.733 39.2291 106.733C39.0642 106.71 38.9582 106.71 38.9111 106.733C38.8875 106.757 38.8522 106.769 38.8051 106.769C38.546 106.769 38.4046 106.781 38.3811 106.804C38.3575 106.828 38.3222 106.84 38.2751 106.84C38.016 106.84 37.8393 106.863 37.7451 106.91C37.6508 106.887 37.5448 106.875 37.427 106.875C37.3093 106.875 37.1915 106.887 37.0737 106.91C36.7911 106.957 36.6026 106.969 36.5084 106.946C36.4142 106.946 36.3081 106.946 36.1903 106.946C35.9548 106.969 35.8017 106.969 35.731 106.946C35.6839 106.946 35.6368 106.969 35.5896 107.016C35.4483 106.922 35.2717 106.922 35.0597 107.016C34.8476 107.11 34.6828 107.099 34.565 106.981C34.4943 107.028 34.3883 107.04 34.2469 107.016C34.1292 106.993 34.0114 106.981 33.8936 106.981C33.7052 107.004 33.5638 106.993 33.4696 106.946C33.1398 106.781 32.9749 106.686 32.9749 106.663C32.9749 106.616 32.9632 106.533 32.9396 106.415C32.8924 106.203 32.8807 106.086 32.9042 106.062C32.9278 106.039 32.9396 106.003 32.9396 105.956L32.9396 105.532C32.9396 105.438 32.9396 105.332 32.9396 105.214C32.9632 105.096 32.9867 104.967 33.0102 104.825C33.0809 104.449 33.1045 104.189 33.0809 104.048C33.0809 103.907 33.0927 103.765 33.1163 103.624C33.1634 103.318 33.1751 103.129 33.1516 103.059C33.128 102.847 33.1163 102.729 33.1163 102.705C33.1398 102.682 33.1516 102.646 33.1516 102.599C33.1516 102.411 33.1398 102.305 33.1163 102.281C33.0927 102.234 33.0809 102.187 33.0809 102.14C33.128 101.881 33.1398 101.751 33.1163 101.751C33.0927 101.728 33.0809 101.692 33.0809 101.645C33.0809 101.504 33.0574 101.363 33.0102 101.221L33.0102 100.797C32.9867 100.468 32.9632 100.256 32.9396 100.161C32.8689 99.9022 32.8336 99.7137 32.8336 99.596C32.8572 99.4546 32.8689 99.3368 32.8689 99.2426C32.8454 99.0541 32.8454 98.8539 32.8689 98.6419C32.8689 98.5712 32.8572 98.4653 32.8336 98.3239C32.81 98.1826 32.7982 98.053 32.7982 97.9352C32.7747 97.6526 32.7511 97.4995 32.7276 97.4759C32.7276 97.4523 32.7276 97.417 32.7276 97.3699L32.7276 96.7692C32.6805 96.5807 32.6569 96.4747 32.6569 96.4512C32.6805 96.4041 32.6922 96.357 32.6922 96.3099C32.6687 96.0036 32.6687 95.7798 32.6922 95.6385C32.7158 95.4736 32.6687 95.3322 32.5509 95.2145ZM40.0418 103.2C40.2302 103.224 40.3598 103.212 40.4305 103.165C40.5247 103.118 40.6071 103.07 40.6778 103.023C40.8898 102.835 40.9722 102.729 40.9252 102.705C40.9016 102.682 40.9134 102.67 40.9605 102.67C41.2196 102.435 41.3727 102.293 41.4199 102.246C41.4905 102.175 41.5494 102.116 41.5965 102.069C41.785 101.834 41.9028 101.692 41.9498 101.645C42.0205 101.575 42.0794 101.504 42.1265 101.433C42.2207 101.292 42.2914 101.162 42.3385 101.045C42.4092 100.903 42.5034 100.786 42.6212 100.691C42.6212 100.574 42.633 100.479 42.6566 100.409C42.7036 100.338 42.7508 100.279 42.7979 100.232C42.8686 100.044 42.9157 99.9493 42.9392 99.9493C42.9863 99.9493 43.0217 99.9375 43.0452 99.914C43.0452 99.7962 43.1159 99.6666 43.2572 99.5253C43.3279 99.4075 43.3868 99.3015 43.4339 99.2073C43.5046 99.0895 43.5634 98.9835 43.6106 98.8892C43.6812 98.7479 43.7519 98.6066 43.8226 98.4653C43.9168 98.3003 43.9875 98.159 44.0346 98.0412L44.2113 97.6879C44.329 97.4052 44.4232 97.2285 44.494 97.1579C44.6117 96.8045 44.7177 96.5219 44.8119 96.3099C44.9061 96.0978 45.0004 95.8976 45.0946 95.7091L45.3773 95.4265C45.4244 95.3087 45.4362 95.1909 45.4126 95.0732C45.4126 94.9554 45.4244 94.8729 45.448 94.8258C45.495 94.6609 45.5304 94.5667 45.554 94.5431C45.5775 94.5196 45.5893 94.4842 45.5893 94.4371C45.6364 94.3194 45.6482 94.2251 45.6246 94.1544C45.6246 94.0838 45.6246 94.0131 45.6246 93.9425C45.6011 93.8011 45.5775 93.6715 45.554 93.5538C45.554 93.436 45.5657 93.3182 45.5893 93.2004C45.495 92.9884 45.448 92.8471 45.448 92.7764C45.448 92.7057 45.4362 92.6468 45.4126 92.5997C45.389 92.5526 45.3538 92.4938 45.3066 92.423C45.2831 92.3288 45.2595 92.2582 45.236 92.2111C45.1417 91.9991 45.0828 91.8813 45.0593 91.8577C44.9179 91.6692 44.8355 91.5397 44.8119 91.469C44.8119 91.3984 44.8002 91.3395 44.7766 91.2923C44.6588 91.1275 44.5882 91.0215 44.5646 90.9743C44.541 90.9037 44.5175 90.8448 44.494 90.7977C44.3762 90.515 44.3173 90.3501 44.3173 90.303C44.1995 90.0674 44.1288 89.9379 44.1053 89.9143C44.1053 89.8672 44.0935 89.8201 44.0699 89.773C43.9286 89.5374 43.8461 89.4197 43.8226 89.4197C43.799 89.3961 43.7754 89.3725 43.7519 89.3489C43.6812 89.1605 43.6224 89.0427 43.5752 88.9956C43.4339 88.713 43.3515 88.5598 43.3279 88.5363C43.1159 88.3007 42.9863 88.1122 42.9392 87.971C42.7979 87.7354 42.6801 87.5587 42.5859 87.4409C42.5152 87.3231 42.4563 87.1936 42.4092 87.0522L42.1265 86.7342C42.0088 86.5693 41.9263 86.4398 41.8792 86.3456C41.7378 86.11 41.6436 85.9569 41.5965 85.8862C41.4081 85.6507 41.2785 85.5093 41.2078 85.4622C41.1607 85.3915 41.1136 85.3326 41.0665 85.2855C40.6189 84.9086 40.2891 84.6142 40.0772 84.4022C39.8651 84.3315 39.7355 84.2962 39.6885 84.2962C39.6413 84.2726 39.6178 84.249 39.6178 84.2255C39.4293 84.1313 39.2762 84.0841 39.1584 84.0841C39.0642 84.2019 38.9936 84.2608 38.9464 84.2608C38.8993 84.2608 38.864 84.2962 38.8404 84.3668C38.8404 84.6495 38.8287 84.8144 38.8051 84.8615C38.8051 84.8851 38.8051 84.9204 38.8051 84.9675C38.8051 85.2031 38.8051 85.3562 38.8051 85.4268C38.8287 85.474 38.8169 85.5211 38.7697 85.5682C38.7697 85.7802 38.7697 85.9451 38.7697 86.0629C38.7933 86.1806 38.7933 86.2984 38.7697 86.4162L38.7697 86.9816C38.7462 87.1229 38.7344 87.2524 38.7344 87.3702C38.758 87.4645 38.7697 87.5705 38.7697 87.6883C38.7697 87.7825 38.7697 87.8885 38.7697 88.0062C38.7933 88.1005 38.7933 88.1829 38.7697 88.2536C38.7462 88.5363 38.7462 88.7012 38.7697 88.7483C38.7227 89.031 38.7109 89.2665 38.7344 89.4549C38.7815 89.6199 38.8169 89.7966 38.8404 89.985C38.8169 90.4325 38.8051 90.7624 38.8051 90.9743C38.8287 91.1863 38.8287 91.3866 38.8051 91.575C38.7344 92.0933 38.7227 92.4938 38.7697 92.7764C38.7697 93.0355 38.7697 93.1769 38.7697 93.2004C38.7933 93.2004 38.7933 93.224 38.7697 93.2711C38.7227 93.5302 38.6991 93.754 38.6991 93.9425C38.7227 94.1309 38.7344 94.3076 38.7344 94.4725C38.7344 94.5431 38.7227 94.6138 38.6991 94.6845C38.6991 94.7551 38.6991 94.8258 38.6991 94.8965C38.6991 95.0614 38.7109 95.2498 38.7344 95.4618C38.7815 95.6738 38.8051 95.8623 38.8051 96.0272C38.8051 96.2156 38.8051 96.3452 38.8051 96.4159C38.8287 96.4865 38.8522 96.5689 38.8757 96.6632L38.8404 97.1225C38.8404 97.1932 38.8404 97.2639 38.8404 97.3345C38.864 97.3817 38.8875 97.4405 38.9111 97.5112C38.9111 97.5819 38.9111 97.6526 38.9111 97.7232C38.9111 97.7939 38.9347 97.8528 38.9818 97.8999C38.9347 98.0648 38.9111 98.159 38.9111 98.1826C38.9347 98.2061 38.9464 98.2415 38.9464 98.2886C38.97 98.689 38.9818 98.9364 38.9818 99.0306C39.0053 99.1484 39.0053 99.2779 38.9818 99.4193C38.9818 99.5606 38.9936 99.6902 39.0171 99.808C39.0171 99.9022 39.0289 99.9964 39.0524 100.091C39.076 100.161 39.0878 100.22 39.0878 100.267C39.0878 100.409 39.076 100.538 39.0524 100.656C39.0289 100.774 39.0524 100.892 39.1231 101.009C39.0996 101.316 39.0878 101.516 39.0878 101.61C39.0878 101.681 39.1114 101.74 39.1584 101.787C39.0878 101.857 39.076 101.963 39.1231 102.105C39.1702 102.246 39.1938 102.364 39.1938 102.458C39.2409 102.717 39.2644 102.917 39.2644 103.059C39.3822 103.106 39.5 103.141 39.6178 103.165C39.7591 103.188 39.9005 103.2 40.0418 103.2ZM70.5706 91.5397C70.5706 91.6339 70.5942 91.7164 70.6413 91.787C70.6885 91.8342 70.712 91.8931 70.712 91.9637C70.712 92.2228 70.7002 92.4348 70.6767 92.5997C70.6767 92.7411 70.6767 92.8824 70.6767 93.0237C70.606 93.33 70.5588 93.5655 70.5353 93.7305C70.5353 94.0131 70.5117 94.2134 70.4646 94.3311C70.4174 94.4254 70.3821 94.5313 70.3585 94.6491C70.3114 94.7669 70.276 94.9083 70.2524 95.0732C70.2524 95.2145 70.2407 95.3794 70.2171 95.5679C70.1706 95.8269 70.1234 96.0036 70.0763 96.0978C70.0527 96.1685 70.041 96.2274 70.041 96.2745C70.041 96.5572 70.0174 96.7339 69.9702 96.8045C69.9467 96.8516 69.9231 96.9106 69.8995 96.9812C69.876 97.2403 69.8524 97.4052 69.8288 97.4759C69.8288 97.523 69.8053 97.5583 69.7581 97.5819C69.4753 97.6526 69.3221 97.6761 69.2986 97.6526C69.2986 97.6054 69.275 97.5583 69.2278 97.5112C68.9686 97.417 68.7807 97.3581 68.6628 97.3345C68.5686 97.2875 68.4979 97.2168 68.4507 97.1225L67.8497 97.0166C67.6382 96.8988 67.4615 96.8281 67.3201 96.8045C67.2022 96.781 67.108 96.7339 67.0372 96.6632C66.8016 96.5689 66.6484 96.5219 66.5777 96.5219C66.507 96.5219 66.4487 96.5219 66.4015 96.5219C66.2837 96.4747 66.1541 96.4629 66.0126 96.4865C65.7534 96.5101 65.6002 96.5219 65.5531 96.5219C65.5059 96.4983 65.447 96.4865 65.3763 96.4865C65.2355 96.5101 65.1295 96.5219 65.0588 96.5219C64.9881 96.4983 64.9056 96.4865 64.8113 96.4865C64.5992 96.4865 64.4696 96.4983 64.4224 96.5219C64.3988 96.5219 64.3635 96.5219 64.3164 96.5219C64.1985 96.4983 64.0925 96.4747 63.9988 96.4512C63.9045 96.4277 63.8103 96.4277 63.716 96.4512C63.4332 96.4512 63.2328 96.4747 63.115 96.5219C62.8558 96.5219 62.656 96.5454 62.5146 96.5925C62.3968 96.6396 62.2672 96.6632 62.1258 96.6632C62.0315 96.6867 61.9373 96.6867 61.8431 96.6632C61.7725 96.6396 61.6782 96.6396 61.5604 96.6632C61.5134 96.7103 61.4898 96.8045 61.4898 96.9458C61.4898 97.0636 61.5134 97.1579 61.5604 97.2285C61.5134 97.3463 61.4898 97.4641 61.4898 97.5819C61.5134 97.6761 61.5251 97.7821 61.5251 97.8999C61.5251 98.0648 61.5134 98.1826 61.4898 98.2533C61.4662 98.3003 61.4544 98.3593 61.4544 98.4299C61.4309 98.5241 61.4191 98.6184 61.4191 98.7126C61.4427 98.8068 61.4544 98.9128 61.4544 99.0306C61.4309 99.1955 61.4309 99.3722 61.4544 99.5606C61.478 99.8668 61.4427 100.114 61.3484 100.303C61.3249 100.468 61.3602 100.621 61.4544 100.762C61.5251 100.974 61.584 101.104 61.6311 101.151C61.8431 101.174 61.9727 101.198 62.0197 101.221C62.0904 101.245 62.1493 101.233 62.1965 101.186C62.2436 101.233 62.3025 101.268 62.3732 101.292C62.4675 101.292 62.55 101.316 62.6207 101.363L63.1504 101.363L63.5746 101.433C63.8574 101.457 64.0342 101.469 64.1042 101.469C64.1985 101.469 64.2692 101.469 64.3164 101.469C64.5756 101.492 64.7288 101.516 64.7759 101.539C65.0352 101.516 65.1648 101.504 65.1648 101.504C65.282 101.528 65.3881 101.551 65.4824 101.575C65.5766 101.598 65.6473 101.586 65.6945 101.539C65.8359 101.539 65.9184 101.528 65.9419 101.504C65.9891 101.48 66.0362 101.469 66.0834 101.469C66.2955 101.398 66.4133 101.374 66.4369 101.398C66.484 101.422 66.5305 101.41 66.5777 101.363C66.7426 101.292 66.8958 101.28 67.0372 101.327C67.2022 101.351 67.379 101.363 67.5675 101.363C67.8262 101.363 68.0029 101.363 68.0972 101.363C68.1915 101.339 68.2857 101.327 68.38 101.327C68.4979 101.304 68.6157 101.28 68.7335 101.257C68.8749 101.233 69.0275 101.21 69.1925 101.186L70.0056 101.186C70.2407 101.21 70.3703 101.21 70.3939 101.186C70.441 101.162 70.4763 101.186 70.4999 101.257C70.712 101.257 70.9006 101.257 71.0655 101.257C71.2305 101.257 71.3719 101.28 71.4892 101.327C71.4892 101.539 71.5009 101.669 71.5245 101.716C71.5481 101.74 71.5599 101.775 71.5599 101.822C71.5834 101.893 71.5834 101.975 71.5599 102.069C71.5363 102.14 71.5481 102.199 71.5952 102.246C71.5009 102.317 71.4538 102.435 71.4538 102.599C71.4538 102.741 71.442 102.894 71.4184 103.059C71.3955 103.153 71.3719 103.235 71.3484 103.306C71.3248 103.377 71.3012 103.436 71.2777 103.483C71.207 103.671 71.148 103.801 71.1009 103.871C71.0773 103.942 71.042 104.025 70.9948 104.119C70.877 104.449 70.8063 104.672 70.7827 104.79C70.7827 104.908 70.7592 105.026 70.712 105.143C70.5706 105.379 70.4999 105.532 70.4999 105.603C70.4999 105.673 70.4528 105.732 70.3585 105.779C70.3821 105.921 70.3703 106.039 70.3231 106.133C70.276 106.227 70.2289 106.321 70.1817 106.415C70.1352 106.604 70.1117 106.71 70.1117 106.733C70.1352 106.781 70.1352 106.804 70.1117 106.804C69.9231 106.922 69.8053 106.969 69.7581 106.946C69.711 106.946 69.6639 106.957 69.6167 106.981L69.0511 107.087C68.9339 107.087 68.8278 107.075 68.7335 107.052C68.6393 107.028 68.5332 107.016 68.4154 107.016C68.2033 107.016 68.0854 107.016 68.0618 107.016C68.0383 107.04 68.0029 107.04 67.9558 107.016C67.7672 106.969 67.6382 106.946 67.5675 106.946C67.4968 106.969 67.4143 106.969 67.3201 106.946C67.108 106.946 66.8958 106.922 66.6837 106.875C66.4958 106.851 66.3073 106.851 66.1187 106.875C65.9537 106.804 65.7652 106.781 65.5531 106.804L64.7406 106.804C64.5049 106.828 64.3635 106.828 64.3164 106.804C64.2928 106.804 64.2692 106.804 64.2457 106.804C64.0106 106.804 63.8574 106.804 63.7867 106.804C63.7396 106.828 63.6924 106.84 63.6453 106.84C63.5274 106.84 63.4214 106.828 63.3271 106.804C63.2564 106.804 63.1504 106.816 63.0089 106.84C62.821 106.887 62.6678 106.898 62.55 106.875C62.4321 106.851 62.3497 106.875 62.3025 106.946C62.1847 106.922 62.0904 106.898 62.0197 106.875C61.9727 106.875 61.9373 106.887 61.9138 106.91C61.8196 106.863 61.69 106.851 61.5251 106.875C61.3838 106.922 61.2542 106.946 61.1365 106.946C61.0422 106.898 60.9362 106.887 60.8184 106.91C60.7242 106.957 60.6182 106.969 60.5004 106.946C60.4298 106.946 60.3355 106.946 60.2177 106.946C60.1235 106.946 60.0411 106.969 59.9704 107.016C59.7113 106.946 59.5817 106.91 59.5817 106.91C59.1813 106.91 58.7337 106.922 58.239 106.946C57.9564 106.875 57.7326 106.84 57.5677 106.84C57.4263 106.84 57.3085 106.828 57.2143 106.804L56.331 106.804C56.2132 106.828 56.0954 106.804 55.9776 106.733C55.8834 106.663 55.7774 106.627 55.6596 106.627C55.424 106.486 55.2945 106.404 55.2709 106.38L55.0236 106.027C54.9529 105.885 54.9058 105.791 54.8823 105.744C54.8823 105.697 54.8823 105.662 54.8823 105.638C54.9293 105.355 54.9647 105.179 54.9883 105.108C55.0354 104.825 55.0589 104.672 55.0589 104.649C55.0825 104.602 55.0942 104.555 55.0942 104.507C55.1178 104.413 55.1178 104.331 55.0942 104.26C55.0942 104.189 55.0942 104.119 55.0942 104.048C55.1414 103.742 55.1532 103.542 55.1296 103.447C55.1296 103.353 55.1414 103.247 55.165 103.129C55.1885 103.035 55.2002 102.941 55.2002 102.847C55.2002 102.729 55.212 102.623 55.2356 102.529C55.2592 102.458 55.2827 102.376 55.3062 102.281C55.3534 102.164 55.3534 102.046 55.3062 101.928C55.2592 101.716 55.2356 101.598 55.2356 101.575C55.2592 101.551 55.2709 101.516 55.2709 101.469C55.2945 101.162 55.3062 100.962 55.3062 100.868L55.3062 100.373C55.3062 100.303 55.2945 100.232 55.2709 100.161C55.2709 100.091 55.2709 100.032 55.2709 99.9847C55.2945 99.6548 55.2945 99.4428 55.2709 99.3486C55.2709 99.2544 55.2592 99.1484 55.2356 99.0306C55.2356 98.795 55.2238 98.6184 55.2002 98.5006C55.1767 98.3357 55.1767 98.2297 55.2002 98.1826C55.2238 98.1355 55.2356 98.0766 55.2356 98.0059C55.2592 97.841 55.2592 97.6526 55.2356 97.4405C55.2592 97.2521 55.2592 97.1461 55.2356 97.1225C55.2356 97.0754 55.2356 97.0048 55.2356 96.9106C55.1885 96.5807 55.165 96.3216 55.165 96.1332C55.1885 95.9447 55.212 95.7563 55.2356 95.5679C55.2356 95.3558 55.2238 95.2498 55.2002 95.2498C55.2002 95.2262 55.2002 95.1909 55.2002 95.1438C55.1767 95.026 55.165 94.92 55.165 94.8258C55.1885 94.708 55.1885 94.6138 55.165 94.5431C55.1178 94.3311 55.1178 94.0838 55.165 93.8011C55.165 93.7305 55.165 93.6598 55.165 93.5891C55.165 93.4948 55.1767 93.4124 55.2002 93.3418C55.2002 93.2711 55.212 93.2122 55.2356 93.1651C55.2592 93.0944 55.2709 93.0237 55.2709 92.9531C55.2474 92.6704 55.2356 92.5173 55.2356 92.4938C55.2592 92.4702 55.2709 92.4348 55.2709 92.3878C55.318 92.1757 55.3062 91.9873 55.2356 91.8224L55.3062 91.2923C55.3534 91.1746 55.3887 91.0803 55.4123 91.0097C55.4358 90.939 55.424 90.8448 55.3769 90.727C55.3062 90.515 55.2592 90.3619 55.2356 90.2677C55.2356 90.1499 55.2356 90.0321 55.2356 89.9143C55.212 89.7494 55.212 89.6081 55.2356 89.4903C55.2827 89.3489 55.2827 89.1841 55.2356 88.9956C55.2592 88.7836 55.2592 88.6423 55.2356 88.5716C55.2356 88.5009 55.2356 88.4303 55.2356 88.3596L55.3062 87.7943C55.3534 87.4881 55.3769 87.2996 55.3769 87.2289C55.4005 87.1582 55.4123 87.0876 55.4123 87.0169C55.4123 86.8991 55.4005 86.7695 55.3769 86.6282C55.3534 86.4633 55.3652 86.2866 55.4123 86.0982C55.4358 85.9333 55.4358 85.8391 55.4123 85.8155C55.4123 85.792 55.4123 85.7567 55.4123 85.7095C55.4123 85.4268 55.4005 85.2738 55.3769 85.2502C55.3769 85.2031 55.3769 85.156 55.3769 85.1088C55.4005 84.7791 55.3769 84.5788 55.3062 84.5082C55.2592 84.2962 55.2474 84.1313 55.2709 84.0135C55.2945 83.8957 55.2945 83.8015 55.2709 83.7308C55.2238 83.4482 55.2002 83.2715 55.2002 83.2008C55.2238 83.1301 55.2356 83.0595 55.2356 82.9888C55.1885 82.7061 55.1532 82.553 55.1296 82.5294C55.1296 82.4823 55.1296 82.4352 55.1296 82.3881C55.1532 82.1054 55.1414 81.917 55.0942 81.8228C55.0471 81.705 55.0118 81.6108 54.9883 81.5401C55.0825 81.3045 55.1414 81.1632 55.165 81.1161C55.1885 81.0454 55.2002 80.9983 55.2002 80.9747C55.4358 80.857 55.6007 80.751 55.6949 80.6567C55.8834 80.6096 56.0012 80.586 56.0483 80.586C56.119 80.5625 56.2014 80.5507 56.2956 80.5507C56.437 80.5978 56.5429 80.6096 56.6137 80.586C56.7079 80.5625 56.8021 80.586 56.8963 80.6567C56.9906 80.6096 57.0848 80.5978 57.179 80.6214C57.2732 80.6214 57.3792 80.6331 57.497 80.6567C57.6383 80.6567 57.7679 80.6449 57.8857 80.6214C58.0034 80.5743 58.1212 80.5978 58.239 80.692C58.5217 80.692 58.6866 80.6803 58.7337 80.6567C58.8044 80.6331 58.8632 80.6214 58.9104 80.6214C59.0988 80.6214 59.2049 80.6096 59.2284 80.586C59.2519 80.5625 59.2873 80.5507 59.3344 80.5507C59.5935 80.5271 59.8173 80.5507 60.0057 80.6214C60.1942 80.6685 60.418 80.6803 60.6771 80.6567C60.8655 80.6567 61.054 80.6214 61.2424 80.5507C61.4309 80.5036 61.5486 80.4918 61.5958 80.5153C61.6664 80.5389 61.7253 80.5507 61.7725 80.5507C61.9138 80.5743 62.0551 80.5743 62.1965 80.5507C62.3614 80.5271 62.5146 80.5153 62.656 80.5153C62.7503 80.5153 62.844 80.5271 62.9382 80.5507C63.0325 80.5743 63.1268 80.586 63.2211 80.586C63.3389 80.586 63.445 80.5743 63.5392 80.5507C63.6571 80.5036 63.7631 80.5036 63.8574 80.5507C64.0224 80.5978 64.116 80.6214 64.1396 80.6214C64.1867 80.5978 64.2221 80.586 64.2457 80.586C64.4342 80.586 64.5874 80.5978 64.7052 80.6214C64.8466 80.6214 64.9998 80.6214 65.1648 80.6214C65.2355 80.6214 65.3056 80.6096 65.3763 80.586C65.447 80.5625 65.5177 80.5507 65.5884 80.5507L66.1187 80.586C66.2365 80.6096 66.3426 80.6449 66.4369 80.692C66.5541 80.7156 66.6719 80.7156 66.7898 80.692C67.0962 80.5978 67.2965 80.5625 67.3908 80.586C67.485 80.586 67.5793 80.5743 67.6736 80.5507C67.8851 80.4801 68.0265 80.4447 68.0972 80.4447L68.7689 80.3387C68.8632 80.2916 68.9456 80.268 69.0157 80.268C69.0864 80.2445 69.1454 80.2209 69.1925 80.1974C69.4282 80.3387 69.546 80.4329 69.546 80.4801C69.546 80.5036 69.5578 80.5389 69.5814 80.586C69.6285 80.6567 69.6639 80.7274 69.6874 80.798C69.711 80.8452 69.7346 80.9158 69.7581 81.01C69.8524 81.2692 69.9231 81.4341 69.9702 81.5047C70.0174 81.5754 70.041 81.6578 70.041 81.7521C70.1352 81.9876 70.1817 82.1172 70.1817 82.1407C70.1817 82.1643 70.1935 82.1997 70.2171 82.2467C70.3114 82.553 70.3585 82.7532 70.3585 82.8474C70.3821 82.9181 70.4174 83.0123 70.4646 83.1301C70.5117 83.4128 70.5588 83.6012 70.606 83.6954C70.7002 83.8839 70.7474 84.037 70.7474 84.1548C70.8416 84.461 70.9006 84.7673 70.9241 85.0735C70.9477 85.2384 70.9477 85.3326 70.9241 85.3562C70.9006 85.3798 70.877 85.415 70.8534 85.4622C70.8534 85.7449 70.8299 85.9804 70.7827 86.1689C70.7356 86.3338 70.6649 86.4751 70.5706 86.5929C70.4292 86.64 70.2878 86.6635 70.147 86.6635C70.0292 86.6635 69.8995 86.6753 69.7581 86.6989C69.711 86.7225 69.6049 86.7342 69.44 86.7342C69.2986 86.7342 69.1689 86.7225 69.0511 86.6989C68.8396 86.6518 68.7218 86.6165 68.6982 86.5929C68.6746 86.5693 68.6393 86.5575 68.5921 86.5575C68.38 86.4869 68.2386 86.4515 68.1679 86.4515C68.1208 86.4515 68.0972 86.4398 68.0972 86.4162C68.0029 86.3691 67.9086 86.3456 67.8144 86.3456C67.7437 86.3456 67.6618 86.322 67.5675 86.2749C67.379 86.2278 67.2729 86.216 67.2494 86.2396C67.2494 86.2396 67.2258 86.2396 67.1787 86.2396C67.108 86.2396 67.0372 86.2278 66.9665 86.2042C66.8958 86.1806 66.8251 86.1571 66.7544 86.1336C66.6602 86.11 66.5659 86.11 66.4722 86.1336C66.4015 86.1336 66.3073 86.1218 66.1894 86.0982C65.9537 86.0982 65.8005 86.11 65.7298 86.1336C65.6591 86.1336 65.5884 86.1336 65.5177 86.1336C65.447 86.1336 65.3763 86.1336 65.3056 86.1336C65.2355 86.11 65.1648 86.0982 65.0941 86.0982C64.882 86.0982 64.6817 86.0982 64.4931 86.0982C64.3046 86.0746 64.1396 86.0746 63.9988 86.0982C63.9045 86.0982 63.822 86.0982 63.7513 86.0982C63.6806 86.0982 63.5981 86.0629 63.5039 85.9922C63.4332 86.0393 63.3625 86.0511 63.2918 86.0275C63.2211 86.004 63.1504 85.9922 63.0796 85.9922C62.7975 86.0393 62.6325 86.0511 62.5853 86.0275C62.5382 86.004 62.4911 85.9922 62.4439 85.9922C62.1375 86.0393 61.9845 86.0864 61.9845 86.1336C61.8667 86.0864 61.7725 86.0746 61.7018 86.0982C61.6311 86.1218 61.5369 86.1453 61.4191 86.1689C61.3013 86.3809 61.2307 86.5222 61.2071 86.5929C61.1835 86.64 61.16 86.6871 61.1365 86.7342L61.1365 87.3702C61.1835 87.4645 61.2071 87.594 61.2071 87.7589C61.2071 87.9002 61.2071 88.0062 61.2071 88.0769C61.2307 88.3125 61.2424 88.4774 61.2424 88.5716C61.266 88.6658 61.2778 88.7601 61.2778 88.8543C61.2307 89.0427 61.2307 89.243 61.2778 89.4549C61.2542 89.5256 61.2424 89.6199 61.2424 89.7376C61.266 89.8554 61.2778 89.9614 61.2778 90.0557L61.2778 90.4443C61.3013 90.4914 61.3013 90.5504 61.2778 90.621C61.2778 90.6681 61.2778 90.7506 61.2778 90.8684C61.4662 90.9626 61.584 91.045 61.6311 91.1157C61.6782 91.1628 61.7136 91.2099 61.7371 91.257C61.9961 91.257 62.1493 91.2688 62.1965 91.2923C62.2436 91.2923 62.3025 91.2923 62.3732 91.2923C62.6089 91.3866 62.7621 91.3984 62.8322 91.3277C62.9029 91.3041 62.9854 91.3041 63.0796 91.3277C63.1739 91.3277 63.2446 91.3277 63.2918 91.3277L63.716 91.3277C63.7867 91.3277 63.8574 91.3395 63.9281 91.363C63.9988 91.363 64.0807 91.363 64.175 91.363C64.3635 91.3159 64.4578 91.3041 64.4578 91.3277C64.4813 91.3513 64.5167 91.3748 64.5638 91.3984C64.8231 91.3513 64.9881 91.3395 65.0588 91.363C65.1295 91.363 65.1884 91.363 65.2355 91.363C65.3527 91.3395 65.4588 91.3277 65.5531 91.3277C65.6473 91.3277 65.777 91.3159 65.9419 91.2923C66.2248 91.3159 66.4015 91.3395 66.4722 91.363C66.5423 91.363 66.613 91.363 66.6837 91.363C66.7544 91.3395 66.8251 91.3277 66.8958 91.3277C67.0137 91.3277 67.1433 91.3277 67.2847 91.3277C67.4261 91.3041 67.5557 91.2923 67.6736 91.2923C67.9322 91.3159 68.0854 91.3277 68.1325 91.3277C68.1797 91.3277 68.2268 91.3277 68.274 91.3277C68.3447 91.3513 68.4389 91.363 68.5568 91.363C68.6746 91.363 68.7807 91.3395 68.8749 91.2923C68.9922 91.3395 69.0982 91.363 69.1925 91.363C69.2868 91.3395 69.381 91.3277 69.4753 91.3277C69.8288 91.3277 70.0174 91.3277 70.041 91.3277C70.2996 91.4455 70.441 91.5044 70.4646 91.5044C70.4881 91.5044 70.5235 91.5162 70.5706 91.5397ZM89.863 100.974C89.628 101.045 89.4984 101.092 89.4748 101.115C89.4748 101.139 89.4512 101.162 89.4041 101.186L89.0859 101.469C88.8502 101.634 88.7324 101.716 88.7324 101.716C88.5674 101.834 88.4502 101.916 88.3795 101.963C88.3324 102.01 88.2852 102.058 88.2381 102.105C88.1909 102.152 88.1438 102.199 88.0967 102.246C87.8846 102.458 87.7667 102.576 87.7431 102.599C87.7196 102.623 87.6842 102.646 87.6371 102.67C87.4957 102.741 87.3896 102.835 87.3195 102.953C87.0367 103.141 86.86 103.247 86.7893 103.271C86.53 103.436 86.3886 103.53 86.365 103.553C86.365 103.577 86.3415 103.601 86.2943 103.624C86.0357 103.718 85.8707 103.765 85.8 103.765C85.7529 103.765 85.7057 103.777 85.6586 103.801C85.2815 103.989 84.9751 104.06 84.7401 104.013C84.5515 103.966 84.3865 103.895 84.2451 103.801C84.0566 103.707 83.9152 103.648 83.8209 103.624C83.7502 103.601 83.6795 103.565 83.6094 103.518C83.468 103.377 83.3737 103.294 83.3266 103.271C83.2795 103.224 83.2323 103.176 83.1852 103.129C83.0673 103.012 82.9141 102.953 82.7256 102.953C82.5135 102.741 82.3727 102.635 82.302 102.635C82.2549 102.611 82.1959 102.576 82.1252 102.529C81.9838 102.411 81.8778 102.317 81.8071 102.246C81.6421 102.081 81.5242 101.963 81.4535 101.893C81.3121 101.681 81.2179 101.551 81.1713 101.504C81.1242 101.457 81.0771 101.41 81.0299 101.363C80.7707 101.316 80.6411 101.327 80.6411 101.398C80.6646 101.445 80.6646 101.492 80.6411 101.539C80.6175 101.586 80.5939 101.645 80.5704 101.716C80.5468 101.787 80.5232 101.857 80.4996 101.928C80.4289 102.187 80.3936 102.328 80.3936 102.352C80.2993 102.611 80.2404 102.752 80.2168 102.776C80.2168 102.776 80.2168 102.8 80.2168 102.847L80.1108 103.271C80.0872 103.553 80.0636 103.73 80.0401 103.801C80.0165 104.107 79.9582 104.343 79.8639 104.507C79.7697 104.814 79.7107 104.979 79.6872 105.002L79.6165 105.391C79.5929 105.579 79.5693 105.709 79.5458 105.779C79.5458 105.85 79.5458 105.933 79.5458 106.027C79.4751 106.239 79.3926 106.392 79.2983 106.486C79.2276 106.675 79.1922 106.781 79.1922 106.804C79.2158 106.828 79.2158 106.851 79.1922 106.875C79.0744 106.969 78.9919 107.04 78.9448 107.087C78.8976 107.158 78.8505 107.216 78.8034 107.264C78.639 107.311 78.4858 107.322 78.3444 107.299C77.9909 107.275 77.6963 107.24 77.4612 107.193C77.3434 107.146 77.2137 107.087 77.0723 107.016C76.9545 106.969 76.8249 106.922 76.6835 106.875C76.3535 106.733 76.1774 106.663 76.1538 106.663C75.9417 106.616 75.8121 106.58 75.7649 106.557C75.7414 106.533 75.706 106.51 75.6589 106.486C75.4232 106.415 75.2936 106.368 75.27 106.345C75.2464 106.298 75.2229 106.298 75.1993 106.345C74.8935 106.251 74.6932 106.215 74.5989 106.239C74.5282 106.239 74.4693 106.215 74.4222 106.168C74.2336 106.003 74.1158 105.909 74.0686 105.885C74.0451 105.838 73.9861 105.815 73.8919 105.815C73.7039 105.65 73.5508 105.532 73.4329 105.461C73.3151 105.273 73.1972 105.143 73.0794 105.073C72.938 104.979 72.8673 104.825 72.8673 104.613C72.8673 104.496 72.8791 104.401 72.9026 104.331C72.9262 104.26 72.9615 104.178 73.0087 104.083C73.103 103.871 73.1619 103.742 73.1854 103.695C73.209 103.624 73.2444 103.553 73.2915 103.483C73.3858 103.294 73.4565 103.165 73.5036 103.094C73.5508 103.023 73.5861 102.953 73.6097 102.882C73.6332 102.788 73.6686 102.717 73.7157 102.67C73.7629 102.552 73.7982 102.435 73.8218 102.317C73.8454 102.175 73.9154 102.069 74.0333 101.999C74.104 101.716 74.1747 101.539 74.2454 101.469C74.2218 101.398 74.2336 101.304 74.2807 101.186C74.3515 101.045 74.3986 100.95 74.4222 100.903C74.5636 100.574 74.6696 100.338 74.7403 100.197C74.8346 100.032 74.9171 99.8551 74.9878 99.6666C75.105 99.4075 75.1757 99.2544 75.1993 99.2073C75.2229 99.1601 75.2464 99.1131 75.27 99.0659C75.3643 98.8304 75.4114 98.7126 75.4114 98.7126C75.4114 98.689 75.4232 98.6655 75.4468 98.6419C75.5175 98.5241 75.5646 98.4181 75.5882 98.3239C75.6117 98.2297 75.6471 98.1473 75.6942 98.0766C75.7414 97.9588 75.8003 97.8174 75.871 97.6526C75.9417 97.4877 76.0124 97.3345 76.0831 97.1932C76.1774 96.9341 76.2481 96.8045 76.2952 96.8045C76.3417 96.5925 76.3771 96.4865 76.4006 96.4865C76.4242 96.4629 76.4478 96.4277 76.4713 96.3805C76.5421 96.1214 76.5774 95.9683 76.5774 95.9212C76.601 95.8741 76.6245 95.8269 76.6481 95.7798C76.6717 95.6621 76.6952 95.5561 76.7188 95.4618C76.7424 95.344 76.7659 95.238 76.7895 95.1438C76.8602 94.9318 76.9427 94.7316 77.037 94.5431C77.0841 94.4725 77.1195 94.39 77.143 94.2958C77.1902 94.2016 77.2491 94.1309 77.3198 94.0838C77.3669 93.8953 77.3905 93.7893 77.3905 93.7658C77.3905 93.7187 77.4023 93.6715 77.4259 93.6244C77.5431 93.3418 77.602 93.2004 77.602 93.2004C77.6256 93.1769 77.6491 93.1415 77.6727 93.0944C77.8141 92.7882 77.8848 92.588 77.8848 92.4938C77.9084 92.3995 77.9437 92.2935 77.9909 92.1757C78.038 92.0579 78.0851 91.9401 78.1323 91.8224C78.203 91.7046 78.2383 91.575 78.2383 91.4337C78.2855 91.3866 78.3326 91.3277 78.3798 91.257C78.4269 91.1863 78.474 91.1039 78.5212 91.0097C78.5919 90.8448 78.6272 90.7388 78.6272 90.6917C78.6272 90.621 78.639 90.5621 78.6626 90.515C78.7097 90.3972 78.7562 90.303 78.8034 90.2323C78.8505 90.1381 78.8858 90.0321 78.9094 89.9143C79.0273 89.6081 79.1333 89.3607 79.2276 89.1723C79.3219 88.9838 79.3926 88.7954 79.4397 88.6069C79.4868 88.4891 79.5104 88.3831 79.5104 88.2889C79.534 88.1947 79.5693 88.0887 79.6165 87.971C79.6636 87.8296 79.7225 87.6883 79.7932 87.5469L79.8639 87.0876C79.8875 87.0404 79.9111 86.9934 79.9346 86.9462C79.9582 86.8756 79.9929 86.8049 80.0401 86.7342C80.1108 86.5222 80.1461 86.3573 80.1461 86.2396C80.1697 86.0982 80.205 85.9686 80.2522 85.8509C80.3229 85.6153 80.37 85.4857 80.3936 85.4622C80.4879 85.0853 80.5704 84.7791 80.6411 84.5435C80.7353 84.1666 80.806 83.9075 80.8532 83.7661C80.9003 83.6248 80.9474 83.4599 80.9946 83.2715C81.0181 83.1301 81.0417 83.0359 81.0653 82.9888C81.0889 82.9417 81.1124 82.8828 81.136 82.8121C81.2061 82.5294 81.2532 82.3527 81.2768 82.2821C81.3239 82.1879 81.3711 82.1172 81.4182 82.0701L81.6657 81.5401C81.7599 81.4459 81.8188 81.3399 81.8424 81.2221C81.8896 81.1043 81.9838 81.0218 82.1252 80.9747C82.2195 80.7627 82.2784 80.6567 82.302 80.6567C82.3256 80.6331 82.3491 80.5978 82.3727 80.5507C82.4664 80.4093 82.5606 80.2916 82.6549 80.1974C82.7492 80.1031 82.8317 80.0442 82.9024 80.0207C82.9731 79.9972 83.0438 79.9972 83.1145 80.0207C83.2088 80.0207 83.2912 80.0324 83.3619 80.056C83.5505 80.0089 83.6448 80.0207 83.6448 80.0914C83.6677 80.1385 83.7148 80.1502 83.7856 80.1267C84.0448 80.1502 84.2216 80.162 84.3158 80.162C84.4101 80.1385 84.5162 80.1502 84.634 80.1974C84.9162 80.1502 85.093 80.1856 85.1637 80.3034C85.3994 80.2091 85.5172 80.1738 85.5172 80.1974C85.5172 80.1974 85.5408 80.1974 85.5879 80.1974C85.8471 80.1738 86.0121 80.162 86.0828 80.162C86.1529 80.1385 86.2236 80.1267 86.2943 80.1267C86.4122 80.1267 86.5182 80.1267 86.6125 80.1267C86.7303 80.1031 86.8482 80.0914 86.966 80.0914C87.131 80.0914 87.2842 80.1267 87.425 80.1974C87.5664 80.2445 87.696 80.3034 87.8139 80.3741C88.0495 80.5625 88.1556 80.6685 88.132 80.692C88.1085 80.7156 88.1202 80.7392 88.1674 80.7627C88.2145 80.8098 88.2616 80.8687 88.3088 80.9394C88.3559 80.9865 88.3913 81.0336 88.4148 81.0807C88.4384 81.1278 88.4384 81.1867 88.4148 81.2574C88.4148 81.3281 88.4148 81.3987 88.4148 81.4694C88.462 81.6814 88.5327 81.8698 88.6263 82.0347C88.7442 82.2467 88.8031 82.3881 88.8031 82.4588C88.8031 82.5059 88.8267 82.5648 88.8738 82.6354C88.8974 82.8003 89.0034 82.9535 89.192 83.0948C89.2155 83.3539 89.3098 83.6248 89.4748 83.9075C89.5455 84.0017 89.5926 84.143 89.6162 84.3315C89.6398 84.4492 89.6633 84.5435 89.6869 84.6142C89.734 84.6848 89.7806 84.7791 89.8277 84.8969C89.922 85.1324 89.9927 85.3208 90.0398 85.4622C90.0869 85.6035 90.1341 85.7331 90.1812 85.8509C90.2048 85.9215 90.2284 86.004 90.2519 86.0982C90.2991 86.1924 90.3344 86.2984 90.358 86.4162C90.4051 86.534 90.4405 86.64 90.464 86.7342C90.4876 86.8049 90.5347 86.8873 90.6054 86.9816C90.6997 87.1464 90.7469 87.276 90.7469 87.3702C90.7469 87.4409 90.7704 87.5233 90.8176 87.6176C90.8647 87.7118 90.9 87.806 90.9236 87.9002C90.9708 87.971 91.0291 88.0416 91.0998 88.1122C91.0998 88.23 91.1115 88.3361 91.1351 88.4303C91.1822 88.5245 91.2294 88.6187 91.2765 88.713C91.3708 88.9956 91.4179 89.1723 91.4179 89.243C91.4651 89.3137 91.4886 89.3843 91.4886 89.4549C91.5122 89.5021 91.5476 89.5492 91.5947 89.5963C91.6183 89.7376 91.6654 89.8672 91.7361 89.985C91.7832 90.0557 91.8186 90.1263 91.8422 90.197C91.8893 90.2677 91.9364 90.3383 91.9836 90.409C92.0778 90.621 92.1132 90.7741 92.0896 90.8684C92.0896 90.939 92.1014 91.0097 92.125 91.0803C92.1485 91.3159 92.2422 91.5515 92.4072 91.787C92.5014 92.1875 92.5839 92.4348 92.6546 92.529C92.7018 92.6468 92.7489 92.7882 92.796 92.9531C92.8432 93.118 92.8903 93.2593 92.9375 93.3771C92.9846 93.4478 93.0199 93.5066 93.0435 93.5538C93.0671 93.6009 93.0906 93.6833 93.1142 93.8011C93.1614 94.0367 93.2085 94.2016 93.2556 94.2958C93.3028 94.3664 93.3381 94.4371 93.3617 94.5078C93.3853 94.5549 93.4088 94.6256 93.4324 94.7198C93.4789 94.8376 93.5143 94.9318 93.5378 95.0025C93.5614 95.0732 93.5967 95.1438 93.6439 95.2145C93.691 95.3087 93.7146 95.3912 93.7146 95.4618C93.7382 95.5325 93.7735 95.6149 93.8206 95.7091C93.8913 95.9447 93.9503 96.0978 93.9974 96.1685C94.0445 96.2156 94.0917 96.2863 94.1388 96.3805C94.1859 96.4747 94.2095 96.5689 94.2095 96.6632C94.2331 96.7574 94.2684 96.8634 94.3156 96.9812C94.3627 97.0518 94.4098 97.1225 94.457 97.1932C94.5041 97.2403 94.5513 97.311 94.5984 97.4052C94.6691 97.5937 94.7038 97.7114 94.7038 97.7586C94.7038 97.8057 94.7274 97.8528 94.7745 97.8999C94.9395 98.1355 95.022 98.2768 95.022 98.3239C95.022 98.371 95.022 98.4181 95.022 98.4653C95.0691 98.583 95.1163 98.689 95.1634 98.7832C95.2341 98.8539 95.293 98.9364 95.3402 99.0306C95.458 99.2661 95.5287 99.4311 95.5523 99.5253C95.5994 99.6195 95.6466 99.702 95.6937 99.7726C95.7644 99.8433 95.8469 99.9493 95.9405 100.091C96.0112 100.279 96.0466 100.385 96.0466 100.409C96.0466 100.432 96.0702 100.468 96.1173 100.515C96.2116 100.797 96.2705 100.95 96.2941 100.974C96.3176 100.998 96.3294 101.021 96.3294 101.045C96.3766 101.092 96.4001 101.151 96.4001 101.221C96.4001 101.292 96.4237 101.363 96.4708 101.433C96.4944 101.504 96.518 101.575 96.5415 101.645C96.5887 101.692 96.624 101.751 96.6476 101.822C96.789 102.081 96.8597 102.234 96.8597 102.281C97.0247 102.47 97.1072 102.599 97.1072 102.67C97.1301 102.741 97.1655 102.8 97.2126 102.847C97.2597 102.941 97.3304 103.059 97.4247 103.2C97.5897 103.483 97.7075 103.648 97.7782 103.695C97.8725 103.742 97.9432 103.813 97.9904 103.907C98.0846 104.142 98.1435 104.319 98.1671 104.437C98.1907 104.555 98.226 104.661 98.2732 104.755C98.1789 105.014 98.1318 105.155 98.1318 105.179L97.8136 105.426C97.6486 105.615 97.5426 105.709 97.4954 105.709C97.4483 105.709 97.4011 105.721 97.354 105.744C96.9775 105.838 96.6594 105.98 96.4001 106.168C96.1644 106.215 96.023 106.251 95.9759 106.274C95.9523 106.274 95.9288 106.298 95.9052 106.345C95.8115 106.345 95.729 106.357 95.6583 106.38C95.5876 106.404 95.5169 106.427 95.4462 106.451C95.3991 106.474 95.3402 106.486 95.2695 106.486C95.2223 106.486 95.1516 106.498 95.0574 106.521C94.9866 106.545 94.9042 106.58 94.8099 106.627C94.7392 106.675 94.6573 106.722 94.563 106.769C94.5159 106.792 94.457 106.816 94.3863 106.84C94.3156 106.887 94.2567 106.922 94.2095 106.946C94.0917 106.969 93.9621 106.981 93.8206 106.981C93.6792 107.004 93.5378 107.028 93.397 107.052C93.2792 107.075 93.1731 107.087 93.0789 107.087C92.9846 107.087 92.8785 107.099 92.7607 107.122C92.5957 107.122 92.4779 107.11 92.4072 107.087C92.3365 107.087 92.254 107.075 92.1603 107.052C92.0661 107.004 91.9836 106.981 91.9129 106.981C91.8422 107.004 91.7832 107.004 91.7361 106.981C91.4768 106.627 91.3001 106.392 91.2058 106.274C91.1351 106.133 91.088 105.933 91.0644 105.673L90.8883 105.249C90.8647 105.155 90.8529 105.026 90.8529 104.861C90.7351 104.602 90.6761 104.437 90.6761 104.366C90.6054 104.225 90.5701 104.072 90.5701 103.907C90.5701 103.742 90.5465 103.589 90.4994 103.447C90.4523 103.33 90.4169 103.2 90.3933 103.059C90.3933 102.917 90.3698 102.764 90.3226 102.599C90.2991 102.505 90.2755 102.411 90.2519 102.317C90.2284 102.199 90.2048 102.081 90.1812 101.963C90.1105 101.681 90.0752 101.539 90.0752 101.539C89.9809 101.304 89.9102 101.115 89.863 100.974ZM85.199 88.6069C84.9398 88.7718 84.7872 88.972 84.7401 89.2076C84.7165 89.4197 84.6576 89.5963 84.5633 89.7376C84.4455 90.0203 84.363 90.2323 84.3158 90.3737C84.2687 90.4208 84.2451 90.4797 84.2451 90.5504C84.2451 90.621 84.2333 90.6917 84.2098 90.7624C84.0919 91.0215 84.0212 91.1981 83.9977 91.2923C83.9977 91.363 83.9741 91.4572 83.927 91.575C83.8563 91.6222 83.8091 91.7046 83.7856 91.8224C83.762 91.9166 83.7148 91.9991 83.6448 92.0697C83.5976 92.3995 83.5269 92.6822 83.4326 92.9177C83.3148 93.224 83.2441 93.4124 83.2205 93.4831C83.2205 93.5302 83.2205 93.6009 83.2205 93.6951C83.1027 93.9307 83.0438 94.072 83.0438 94.1191C83.0438 94.1427 83.0202 94.178 82.9731 94.2251C82.9024 94.39 82.8434 94.5078 82.7963 94.5785C82.7727 94.6491 82.7492 94.708 82.7256 94.7551C82.6549 95.0142 82.6078 95.1909 82.5842 95.2852C82.5606 95.3794 82.5371 95.4618 82.5135 95.5325C82.4664 95.8623 82.431 96.0508 82.4081 96.0978C82.4081 96.145 82.3845 96.2038 82.3373 96.2745C82.2902 96.3923 82.2549 96.4983 82.2313 96.5925C82.2313 96.6632 82.2077 96.7456 82.1606 96.8399C82.1135 97.0754 82.0781 97.2403 82.0545 97.3345C82.0074 97.4995 81.972 97.6054 81.9485 97.6526C81.9249 97.6997 81.9013 97.7468 81.8778 97.7939C81.7835 98.0294 81.7364 98.1708 81.7364 98.2179C81.7128 98.3357 81.6774 98.4417 81.6303 98.5359C81.6067 98.6066 81.5832 98.6772 81.5596 98.7479C81.6539 98.795 81.7364 98.8186 81.8071 98.8186C81.8778 98.795 81.972 98.7715 82.0899 98.7479C82.2784 98.8422 82.4899 98.8657 82.7256 98.8186C82.9849 98.7479 83.1734 98.7479 83.2912 98.8186C83.3384 98.7715 83.3973 98.7479 83.468 98.7479C83.5623 98.7479 83.6448 98.7479 83.7148 98.7479C83.7856 98.7244 83.9152 98.7126 84.1037 98.7126C84.1744 98.7126 84.2451 98.7244 84.3158 98.7479C84.4101 98.7479 84.5044 98.7479 84.5987 98.7479L85.4111 98.7479C85.5997 98.7244 85.7057 98.7244 85.7293 98.7479C85.7529 98.7479 85.7882 98.7479 85.8354 98.7479C85.8825 98.7715 85.9414 98.7832 86.0121 98.7832C86.0828 98.7597 86.1529 98.7479 86.2236 98.7479L87.1074 98.7479L87.6371 98.7479C87.7549 98.7479 87.861 98.7362 87.9553 98.7126C88.0731 98.689 88.1674 98.7008 88.2381 98.7479C88.3088 98.7244 88.462 98.7126 88.697 98.7126C88.8149 98.4063 88.8738 98.2533 88.8738 98.2533C88.7795 98.0412 88.7088 97.8646 88.6617 97.7232C88.6381 97.5819 88.591 97.4405 88.5209 97.2992C88.5209 97.1814 88.4973 97.0636 88.4502 96.9458C88.4266 96.8281 88.4031 96.7103 88.3795 96.5925C88.3088 96.3099 88.2616 96.1214 88.2381 96.0272C88.2145 95.9094 88.1792 95.8034 88.132 95.7091C88.0378 95.5207 87.9906 95.4029 87.9906 95.3558C87.9906 95.2852 87.9788 95.2262 87.9553 95.1792C87.8374 94.9436 87.7785 94.7787 87.7785 94.6845C87.7314 94.5903 87.6842 94.4489 87.6371 94.2604C87.5193 94.0249 87.4603 93.8717 87.4603 93.8011C87.4603 93.7069 87.4485 93.6362 87.425 93.5891C87.3307 93.3064 87.2724 93.1297 87.2488 93.0591C87.2488 92.9884 87.2371 92.9295 87.2135 92.8824C87.1899 92.8117 87.1663 92.7529 87.1428 92.7057C87.1428 92.6351 87.131 92.5644 87.1074 92.4938C86.9896 92.3053 86.9189 92.1639 86.8953 92.0697C86.8717 91.9755 86.8364 91.8931 86.7893 91.8224C86.7421 91.7046 86.7068 91.5868 86.6832 91.469C86.6596 91.3513 86.6243 91.257 86.5771 91.1863L86.4004 90.727C86.259 90.3972 86.1529 90.1852 86.0828 90.091C86.0121 89.9968 85.9768 89.8908 85.9768 89.773C85.8589 89.6316 85.8 89.5139 85.8 89.4197C85.7293 89.3019 85.694 89.2194 85.694 89.1723C85.694 89.1016 85.6704 89.0427 85.6233 88.9956C85.5054 88.7365 85.364 88.6069 85.199 88.6069ZM99.6153 80.6567C99.8746 80.5625 100.075 80.5153 100.216 80.5153C100.263 80.5153 100.334 80.5036 100.428 80.4801C100.546 80.4565 100.641 80.4329 100.711 80.4093C100.876 80.3623 101.005 80.3858 101.099 80.4801C101.241 80.4329 101.371 80.4093 101.488 80.4093C101.724 80.4329 101.877 80.4447 101.948 80.4447C102.018 80.4211 102.077 80.4093 102.124 80.4093C102.313 80.4093 102.489 80.4211 102.654 80.4447C102.843 80.4447 103.031 80.4211 103.22 80.3741C103.29 80.4447 103.373 80.4683 103.467 80.4447C103.561 80.4211 103.667 80.4093 103.785 80.4093C104.021 80.4093 104.162 80.4093 104.209 80.4093C104.28 80.3858 104.339 80.3741 104.386 80.3741C104.574 80.4211 104.692 80.4447 104.739 80.4447C104.786 80.4211 104.833 80.4093 104.88 80.4093C105.045 80.3858 105.187 80.4093 105.305 80.4801C105.446 80.5271 105.587 80.5625 105.728 80.586C105.87 80.7038 105.964 80.798 106.011 80.8687C106.176 81.0572 106.258 81.1985 106.258 81.2927C106.258 81.3634 106.282 81.4223 106.329 81.4694C106.306 81.5636 106.317 81.6578 106.365 81.7521C106.412 81.8228 106.423 81.917 106.4 82.0347C106.376 82.2467 106.365 82.3881 106.365 82.4588C106.388 82.5059 106.4 82.553 106.4 82.6001C106.4 82.7179 106.388 82.8474 106.365 82.9888C106.341 83.1065 106.353 83.2361 106.4 83.3775C106.376 83.6601 106.329 83.9663 106.258 84.2962C106.211 84.6024 106.223 84.8615 106.294 85.0735C106.2 85.2384 106.164 85.3326 106.188 85.3562C106.211 85.3798 106.235 85.415 106.258 85.4622C106.211 85.5564 106.188 85.6507 106.188 85.7449C106.211 85.8391 106.235 85.9451 106.258 86.0629C106.211 86.1571 106.176 86.2631 106.152 86.3809C106.152 86.4987 106.152 86.6165 106.152 86.7342C106.176 86.8991 106.164 87.0522 106.117 87.1936C106.07 87.3114 106.058 87.4527 106.082 87.6176C106.058 88.018 106.046 88.4185 106.046 88.819C106.046 89.1959 106.035 89.5492 106.011 89.879C106.011 90.0674 105.987 90.2559 105.94 90.4443C105.917 90.6799 105.917 90.9037 105.94 91.1157C105.964 91.3041 105.976 91.4808 105.976 91.6457L105.976 92.1051C105.976 92.1993 105.964 92.2935 105.94 92.3878C105.94 92.482 105.94 92.5644 105.94 92.6351C105.964 92.8942 105.976 93.1415 105.976 93.3771C105.976 93.6127 105.999 93.8482 106.046 94.0838L106.082 94.5431C106.058 94.6138 106.046 94.6963 106.046 94.7905C106.07 94.8611 106.082 94.9318 106.082 95.0025C106.082 95.1909 106.082 95.2969 106.082 95.3205C106.105 95.344 106.117 95.3794 106.117 95.4265C106.117 95.4971 106.105 95.5679 106.082 95.6385C106.082 95.7091 106.082 95.7798 106.082 95.8505C106.105 96.1567 106.152 96.3452 106.223 96.4159C106.247 96.6043 106.247 96.781 106.223 96.9458C106.223 97.1108 106.235 97.2757 106.258 97.4405C106.329 97.6997 106.353 97.8646 106.329 97.9352C106.329 97.9824 106.329 98.0412 106.329 98.1119C106.306 98.4181 106.317 98.689 106.365 98.9246C106.412 99.1601 106.435 99.3486 106.435 99.49L106.435 99.914L106.4 100.373C106.447 100.609 106.541 100.738 106.683 100.762C106.848 100.786 106.965 100.786 107.036 100.762L107.566 100.903C107.684 100.927 107.778 100.95 107.849 100.974C107.943 100.974 108.049 100.986 108.166 101.009C108.331 100.962 108.449 100.95 108.52 100.974C108.59 100.974 108.626 100.939 108.626 100.868C108.744 100.939 108.92 100.974 109.156 100.974C109.391 100.95 109.603 100.95 109.792 100.974C110.004 100.974 110.145 100.974 110.216 100.974C110.31 100.974 110.381 100.95 110.428 100.903C110.616 100.927 110.84 100.939 111.099 100.939C111.382 100.939 111.594 100.915 111.736 100.868C111.876 100.915 112.053 100.939 112.265 100.939C112.501 100.915 112.701 100.892 112.866 100.868C113.008 100.844 113.125 100.844 113.219 100.868C113.313 100.892 113.372 100.892 113.396 100.868C113.632 100.797 113.832 100.774 113.997 100.797C114.185 100.892 114.291 100.927 114.314 100.903C114.362 100.856 114.409 100.856 114.456 100.903C114.55 100.974 114.609 101.045 114.633 101.115C114.656 101.186 114.692 101.245 114.739 101.292C114.715 101.433 114.727 101.551 114.774 101.645C114.821 101.74 114.821 101.846 114.774 101.963C114.703 102.199 114.644 102.328 114.597 102.352C114.574 102.376 114.55 102.411 114.527 102.458C114.456 102.646 114.42 102.764 114.42 102.811C114.444 102.858 114.432 102.917 114.385 102.988C114.267 103.247 114.197 103.4 114.174 103.447C114.15 103.471 114.127 103.506 114.103 103.553C113.985 103.813 113.926 103.977 113.926 104.048C113.832 104.213 113.785 104.343 113.785 104.437C113.596 104.672 113.502 104.814 113.502 104.861C113.502 104.908 113.49 104.955 113.467 105.002C113.443 105.096 113.419 105.179 113.396 105.249C113.372 105.297 113.337 105.355 113.29 105.426C113.196 105.567 113.137 105.662 113.113 105.709C113.113 105.756 113.101 105.803 113.078 105.85C112.96 106.015 112.902 106.133 112.902 106.203C112.784 106.392 112.701 106.51 112.654 106.557C112.56 106.722 112.489 106.792 112.442 106.769C112.395 106.769 112.371 106.792 112.371 106.84C112.183 106.934 112.065 106.969 112.018 106.946C111.971 106.922 111.923 106.91 111.876 106.91C111.783 106.957 111.63 106.957 111.417 106.91C111.3 106.91 111.194 106.922 111.099 106.946C111.005 106.969 110.899 106.957 110.781 106.91C110.663 106.863 110.581 106.84 110.534 106.84C110.487 106.863 110.44 106.875 110.393 106.875C110.275 106.875 110.169 106.875 110.075 106.875C109.98 106.898 109.874 106.887 109.756 106.84C109.686 106.887 109.615 106.898 109.544 106.875C109.474 106.875 109.391 106.875 109.298 106.875L108.697 106.875C108.461 106.828 108.296 106.792 108.202 106.769C107.919 106.816 107.754 106.816 107.707 106.769C107.401 106.722 107.153 106.722 106.965 106.769C106.824 106.816 106.718 106.828 106.647 106.804C106.6 106.781 106.553 106.769 106.506 106.769C106.388 106.792 106.306 106.804 106.258 106.804C106.211 106.828 106.152 106.84 106.082 106.84C105.87 106.816 105.74 106.804 105.693 106.804C105.646 106.804 105.623 106.792 105.623 106.769C105.458 106.745 105.281 106.733 105.092 106.733C104.927 106.733 104.739 106.733 104.527 106.733C104.457 106.71 104.386 106.698 104.315 106.698C104.245 106.698 104.174 106.675 104.103 106.627C103.868 106.51 103.726 106.451 103.679 106.451C103.632 106.427 103.585 106.415 103.538 106.415C103.467 106.368 103.396 106.309 103.325 106.239C103.255 106.168 103.161 106.098 103.043 106.027C102.925 105.909 102.843 105.803 102.796 105.709C102.607 105.497 102.501 105.391 102.478 105.391C102.454 105.367 102.442 105.332 102.442 105.285C102.372 105.214 102.289 105.155 102.195 105.108C102.124 105.037 102.065 104.943 102.018 104.825C101.924 104.778 101.854 104.719 101.807 104.649C101.759 104.555 101.7 104.449 101.63 104.331C101.394 104.142 101.288 104.048 101.312 104.048C101.241 103.907 101.182 103.824 101.135 103.801C101.111 103.754 101.076 103.707 101.029 103.659C100.793 103.377 100.641 103.165 100.57 103.023C100.523 102.858 100.428 102.752 100.287 102.705C100.287 102.588 100.252 102.517 100.181 102.493C100.134 102.446 100.087 102.399 100.04 102.352C99.9453 102.14 99.8864 102.034 99.8628 102.034C99.8392 102.01 99.8274 101.975 99.8274 101.928C99.8274 101.716 99.8392 101.586 99.8628 101.539C99.8864 101.492 99.8981 101.433 99.8981 101.363C99.8039 101.009 99.7685 100.715 99.7921 100.479C99.7214 100.385 99.6978 100.291 99.7214 100.197C99.7685 100.102 99.7449 100.032 99.6507 99.9847C99.6742 99.6548 99.686 99.3486 99.686 99.0659C99.6625 98.8539 99.6507 98.7126 99.6507 98.6419C99.6507 98.5712 99.6507 98.5124 99.6507 98.4653C99.6742 98.3945 99.686 98.3239 99.686 98.2533C99.686 98.1119 99.686 97.9706 99.686 97.8292C99.686 97.6643 99.6978 97.4995 99.7214 97.3345C99.7449 97.2639 99.7685 97.1932 99.7921 97.1225C99.8156 97.0518 99.8274 96.993 99.8274 96.9458C99.8274 96.7103 99.8274 96.5807 99.8274 96.5572C99.851 96.5101 99.8628 96.4747 99.8628 96.4512C99.8156 96.357 99.7803 96.2745 99.7567 96.2038C99.7567 96.1332 99.7567 96.0743 99.7567 96.0272C99.7567 95.9565 99.7685 95.8858 99.7921 95.8152C99.8156 95.7445 99.8274 95.6738 99.8274 95.6031L99.7214 95.2145L99.7214 94.8258C99.7449 94.6373 99.7449 94.4254 99.7214 94.1898C99.7214 93.9307 99.7332 93.6951 99.7567 93.4831C99.851 93.1297 99.8864 92.8824 99.8628 92.7411C99.8392 92.5997 99.8039 92.4348 99.7567 92.2464C99.8274 91.9873 99.851 91.8224 99.8274 91.7517C99.8039 91.681 99.7921 91.6104 99.7921 91.5397C99.8156 91.3041 99.8156 91.1746 99.7921 91.151C99.7921 91.1039 99.7921 91.0568 99.7921 91.0097C99.7921 90.8684 99.7803 90.7741 99.7567 90.727C99.7332 90.6564 99.7214 90.5857 99.7214 90.515C99.7685 90.303 99.7921 90.1852 99.7921 90.1617C99.8156 90.1145 99.8274 90.0674 99.8274 90.0203L99.7921 89.5963L99.7567 89.0663C99.7332 88.8543 99.7214 88.6658 99.7214 88.5009C99.6742 88.0534 99.6742 87.7236 99.7214 87.5116C99.7685 87.2996 99.7332 87.1229 99.6153 86.9816C99.6625 86.7695 99.686 86.6165 99.686 86.5222C99.686 86.428 99.6978 86.322 99.7214 86.2042C99.7449 85.9215 99.7449 85.7684 99.7214 85.7449C99.7214 85.7213 99.7214 85.686 99.7214 85.6389C99.7685 85.3562 99.7685 85.1442 99.7214 85.0028C99.6978 84.8379 99.686 84.6731 99.686 84.5082C99.6625 84.2726 99.6507 84.143 99.6507 84.1195C99.6742 84.0723 99.686 84.0253 99.686 83.9781C99.6625 83.9075 99.6507 83.825 99.6507 83.7308C99.6742 83.613 99.686 83.4952 99.686 83.3775C99.686 83.2361 99.6625 83.0712 99.6153 82.8828C99.6389 82.6708 99.6271 82.4941 99.58 82.3527C99.557 82.1879 99.5452 82.023 99.5452 81.858C99.5217 81.6932 99.5217 81.5754 99.5452 81.5047C99.5682 81.4341 99.58 81.3516 99.58 81.2574C99.557 81.1161 99.5682 81.01 99.6153 80.9394C99.6625 80.8452 99.6625 80.751 99.6153 80.6567Z" fill="#f5891d" fill-rule="nonzero" opacity="1" stroke="none" vectornator:layerName="path"/>
</g>
</g>
</svg>
